PathFileType	4	(X/Y/Z)	C:/Users/beibeiliu/ov580/test_trc/capture2\sequence.18_training_dense_right.trc
DataRate	CameraRate	NumFrames	NumMarkers	Units	OrigDataRate	OrigDataStartFrame	OrigNumFrames
120	120	18	19	mm	120	150	398
Frame#	Time	ThumbCMC			ThumbMCP			ThumbIP			ThumbTip			IndexMCP			IndexPIP			IndexTip			MiddleMCP			MiddlePIP			MiddleTip			RingMCP			RingPIP			RingTip			PinkyMCP			PinkyPIP			PinkyTip			BackHand1			BackHand2			BackHand3	
		X0	Y0	Z0	X1	Y1	Z1	X2	Y2	Z2	X3	Y3	Z3	X4	Y4	Z4	X5	Y5	Z5	X6	Y6	Z6	X7	Y7	Z7	X8	Y8	Z8	X9	Y9	Z9	X10	Y10	Z10	X11	Y11	Z11	X12	Y12	Z12	X13	Y13	Z13	X14	Y14	Z14	X15	Y15	Z15	X16	Y16	Z16	X17	Y17	Z17	X18	Y18	Z18	
149	1.24167	149.985	85.4289	28.1731	142.997	96.6513	5.90219	144.671	103.717	-25.7437	137.602	99.4193	-47.3629	129.696	75.1497	-42.923	105.925	92.5758	-41.1529	108.746	90.9365	-7.61415	115.33	64.4429	-39.8953	92.5419	85.1858	-29.4646	107.331	79.0634	5.8246	100.786	56.8733	-31.326	85.2294	74.2708	-14.8394	108.501	66.7278	13.2544	89.6316	46.0215	-20.702	81.8284	64.8992	-0.227189	107.089	57.0389	19.6298	133.855	25.8798	4.54099	138.102	23.9816	35.6848	156.704	50.7338	16.6266	
150	1.25	152.267	82.5075	29.3513	147.564	93.9564	1.76159	148.938	99.2808	-23.3109	147.333	98.3732	-49.0416	138.421	75.013	-43.0517	114.242	94.2842	-44.3923	120.09	91.0464	-7.22935	118.517	62.1204	-41.9292	96.7629	82.6159	-29.5397	112.336	76.6499	3.86419	105.596	52.1689	-32.5615	90.0098	74.6764	-14.5743	109.16	69.1568	9.73724	97.0459	42.3702	-22.3185	84.5328	62.7672	-6.66426	107.906	56.347	18.8038	137.684	24.3497	2.98676	140.996	24.4833	34.5017	158.388	47.6208	17.2585	
151	1.25833	156.175	81.2758	27.1647	152.181	94.642	3.11494	154.166	93.7592	-25.1936	152.077	93.8039	-48.2315	145.909	72.7914	-42.5861	119.885	87.877	-45.8203	123.994	86.4602	-9.05273	126.452	57.4758	-41.4092	103.736	80.4931	-35.1326	115.594	79.4446	-0.458551	106.537	50.8041	-36.3225	93.6086	71.9772	-17.5713	110.594	65.8594	7.70569	98.1322	37.3843	-25.0719	89.8942	62.1552	-7.88453	111.808	53.486	15.7034	141.018	23.3415	5.06433	140.297	20.6984	39.8687	161.279	46.6506	19.586	
152	1.26667	155.559	77.9627	29.2605	154.786	92.3403	4.76576	161.386	96.2624	-27.0834	160.831	93.1277	-47.9879	150.472	67.2266	-42.1916	127.009	86.5652	-46.8747	127.99	84.9376	-12.6991	130.393	57.2969	-45.4825	111.653	79.4298	-36.4234	119.112	73.4438	-0.965378	116.417	46.3488	-35.7656	101.633	69.3185	-25.5072	116.485	66.451	4.59268	107.027	36.874	-25.5288	94.2503	59.6968	-8.51425	113.287	55.1859	12.9544	142.729	17.3607	6.94334	144.492	24.7021	40.7842	164.78	46.8539	23.3967	
153	1.275	159.203	78.7927	32.6053	159.486	91.051	4.53688	167.236	94.1585	-25.2277	167.047	93.8902	-46.792	160.078	69.2103	-43.5987	134.904	85.0683	-48.833	131.793	83.6922	-14.7911	143.504	54.2454	-42.4256	116.658	75.9548	-37.3849	127.524	75.1059	-2.52472	124.077	47.3569	-39.2226	107.359	67.3844	-24.8689	120.679	62.2121	4.90065	113.16	35.209	-28.1806	101.196	58.0583	-13.1471	121.665	54.7477	10.4019	148.24	17.949	6.61286	148.523	20.0308	37.3569	167.485	44.3818	25.3752	
154	1.28333	161.479	76.9373	31.9958	164.139	89.0136	4.22162	170.982	92.1973	-22.715	174.661	90.7596	-46.6782	164.715	65.4324	-44.3559	142.68	84.7859	-48.7155	138.589	82.2776	-15.3089	148.228	52.2014	-43.8254	124.907	72.8071	-42.0843	132.168	73.3517	-3.78205	131.535	42.0628	-37.9378	110.908	63.0061	-28.263	126.174	63.7425	2.69985	118.535	31.74	-28.3451	105.593	55.2177	-18.0293	120.452	54.7891	11.0051	152.562	20.0213	9.6971	148.114	18.9812	40.3599	173.877	44.0798	25.4653	
155	1.29167	164.682	75.6813	33.1978	169.435	88.4044	4.98032	178.925	91.7713	-22.3898	180.585	86.9756	-44.0703	173.168	61.891	-42.3392	149.599	79.7775	-48.2985	143.337	84.0108	-19.2021	157.106	52.9502	-44.9313	129.922	71.6351	-40.8718	137.112	71.3366	-3.93306	137.348	38.4638	-37.3485	117.974	63.0763	-29.2972	131.866	60.7612	2.81788	126.468	28.7256	-29.5787	111.919	54.6724	-18.4126	128.186	53.4131	9.72473	156.839	15.0125	7.28596	150.802	19.0381	40.6052	174.828	42.3488	27.8039	
156	1.3	171.44	76.7248	32.0853	172.592	87.2474	7.40682	183.102	89.7601	-18.9376	189.869	88.2177	-40.6329	183.623	61.6267	-40.1336	159.108	79.2605	-49.2789	150.829	81.4612	-19.4932	164.094	48.1303	-43.2592	143.886	70.2419	-45.5789	141.673	67.6056	-4.91823	148.394	41.0442	-41.0205	129.335	63.3172	-30.4633	138.505	60.9106	0.667399	134.318	27.1672	-30.3203	122.644	52.6584	-23.5985	134.185	51.6437	9.27939	163.795	15.8132	8.64047	156.64	20.8384	42.0203	181.644	39.6862	29.0098	
157	1.30833	175.401	77.974	34.5528	182.918	84.7493	3.87769	194.521	87.2384	-20.5352	199.839	82.637	-41.8322	192.953	57.0236	-34.6505	172.905	77.469	-49.9537	160.405	80.0486	-17.2598	175.696	47.8547	-43.2512	150.08	66.3151	-42.8363	148.162	66.2112	-5.89311	156.229	34.1237	-38.4918	138.481	58.5195	-35.614	140.498	58.577	-0.26944	144.051	24.0139	-31.2972	131.29	49.8152	-25.7419	137.956	50.6296	5.39004	170.117	14.0586	16.0552	163.486	19.3626	45.4316	187.796	42.7422	31.6142	
158	1.31667	182.78	74.9858	31.2777	188.779	86.1318	8.19781	201.689	84.8589	-17.7192	212.569	83.1166	-39.9464	203.396	54.6302	-34.5619	185.861	73.743	-49.1999	167.074	76.1264	-18.0588	186.13	41.6424	-38.5758	162.381	63.0672	-45.3384	154.784	64.7574	-7.91576	168.883	32.8939	-37.1953	149.958	55.7536	-36.177	152.945	59.7982	0.240135	154.048	21.2673	-31.334	141.461	48.9127	-25.3202	143.776	47.0921	5.94595	178.053	12.1375	13.7688	167.181	20.6695	43.6928	193.381	42.4072	33.5734	
159	1.325	186.41	76.3191	36.2877	194.337	80.3071	8.53259	208.513	83.248	-11.8512	222.862	79.7198	-35.9718	214.354	54.7982	-30.4852	196.305	68.7843	-46.9998	177.35	76.376	-17.0232	198.213	39.6024	-33.7066	170.294	61.132	-41.5726	163.206	63.5912	-9.44628	181.301	31.6322	-33.1657	159.127	54.6345	-34.7099	156.583	56.5338	-1.74043	167.68	19.559	-27.1336	148.668	44.8419	-26.3485	156.005	46.9981	3.97702	181.72	10.7441	20.2486	168.872	16.2796	44.7789	196.932	36.4688	35.7566	
160	1.33333	190.813	71.5002	34.7277	202.617	85.0101	11.9784	220.122	86.3555	-8.74665	233.483	80.4662	-30.2037	224.082	53.9492	-24.9436	205.64	67.3777	-43.5295	184.525	73.029	-13.1684	207.912	41.9819	-33.3205	183.772	62.2625	-39.8999	171.925	62.5691	-8.58107	190.337	31.9597	-34.4627	170.395	53.6235	-33.8771	166.059	54.5737	0.577426	175.078	18.8853	-28.4475	160.887	42.3489	-28.2407	159.206	44.8968	3.10816	189.176	11.825	24.2408	174.023	15.6117	46.1474	201.762	40.9668	41.3044	
161	1.34167	192.596	74.0891	39.3255	207.018	83.3543	13.3138	226.238	82.8696	-8.28939	235.698	80.2491	-24.2526	228.846	52.5055	-21.1535	208.861	66.1899	-41.1414	189.496	72.1309	-11.2043	213.958	42.1482	-30.3781	189.385	55.8145	-40.7189	177.354	64.4067	-6.67171	195.304	29.4738	-30.8859	174.091	51.5227	-32.6915	168.082	54.4797	-1.80636	181.407	19.2223	-26.6521	162.225	39.8381	-27.2188	161.225	43.081	5.09337	196.424	12.521	23.7226	176.446	17.4999	52.3926	204.928	39.9315	45.267	
162	1.35	188.78	73.5255	37.788	200.436	86.4637	13.6993	215.184	85.9522	-7.72367	224.588	81.8774	-27.7607	219.791	54.3285	-22.3365	199.949	67.89	-42.6685	181.617	76.4963	-16.5086	205.582	42.7827	-32.5153	182.2	61.025	-40.9392	170.874	63.3984	-3.20007	190.075	33.0888	-32.4383	168.416	52.7209	-34.1388	165.406	52.795	1.41517	174.848	15.5848	-27.7162	157.029	41.2475	-27.0964	158.234	42.7501	5.74947	190.636	10.012	19.745	174.066	14.4113	49.366	202.174	42.4244	39.4221	
163	1.35833	162.881	81.2499	32.904	170.569	90.4204	3.95142	181.989	93.3299	-19.7153	190.246	93.1673	-39.8978	191.531	68.2712	-36.4303	167.972	76.631	-48.8135	152.993	76.4263	-16.1501	179.512	50.9738	-39.1976	149.303	62.3814	-45.9826	143.633	67.2129	-11.038	162.351	36.0705	-40.0173	136.34	52.6322	-36.2592	138.175	52.679	-3.57037	151.046	22.6328	-33.0758	131.703	43.3364	-29.0752	137.18	44.8583	4.91134	174.046	17.958	15.0756	160.999	18.6508	42.212	178.97	48.3377	34.5629	
164	1.36667	148.41	79.6434	28.2882	151.203	93.1624	1.23119	162.609	97.7225	-25.0328	166.264	96.8902	-43.3037	171.138	67.288	-40.8581	144.509	82.7245	-51.1085	133.376	80.9636	-22.0998	157.795	55.0319	-45.7038	129.65	67.4184	-46.8759	126.812	65.5518	-9.45643	142.736	39.5455	-43.733	117.77	54.0369	-36.5711	124.89	53.0351	-2.90823	133.576	23.3997	-35.9864	109.243	40.6904	-29.6942	121.753	44.3487	4.33677	160.406	17.7581	9.43685	147.956	19.4813	41.4892	166.425	50.042	29.16	
165	1.375	141.636	79.0756	29.3013	142.311	93.4983	0.214699	152.958	100.128	-27.874	155.597	96.4699	-48.564	160.244	70.9492	-41.688	131.633	83.0191	-52.5974	121.598	83.0113	-22.9699	145.358	49.8908	-45.8348	115.328	65.2981	-45.8677	115.532	63.5825	-9.87323	130.122	37.4124	-44.6665	108.888	55.7649	-38.7517	114.155	51.7691	-3.49789	122.311	29.0952	-36.9577	101.856	43.7763	-30.5246	110.581	43.8553	4.22387	152.405	20.2186	9.90582	142.343	19.0012	36.4867	160.506	49.4778	25.0815	
166	1.38333	136.791	79.0315	24.395	134.207	91.3608	-1.46736	139.988	100.802	-23.794	143.675	97.582	-46.0371	147.705	67.3827	-44.4937	119.988	80.2642	-52.6327	111.082	82.8066	-22.2144	135.406	54.5708	-48.862	106.863	68.4646	-46.2932	109.908	67.6559	-8.5256	121.729	37.9235	-43.7358	95.4059	52.7602	-34.3845	105.73	52.9305	-3.16803	115.622	25.2064	-33.1526	90.7061	41.6171	-27.3351	103.631	46.4464	0.524238	145.32	22.177	4.73229	137.846	20.5811	34.5929	156.335	49.6716	23.4108	
